<svg version="1.1" xmlns="http://www.w3.org/2000/svg" xmlns:xlink="http://www.w3.org/1999/xlink" width="1560" height="804"><defs/><g><path fill="none" stroke="#02063B" paint-order="fill stroke markers" d=" M 20 406.9331578771485 L 21 407.17722542571516 L 22 407.4209147732511 L 23 407.6642081180277 L 24 407.9070876872446 L 25 408.14953573832815 L 26 408.39153456022757 L 27 408.63306647470847 L 28 408.8741138376447 L 29 409.11465904030695 L 30 409.3546845106491 L 31 409.59417271459216 L 32 409.83310615730466 L 33 410.07146738448114 L 34 410.309238983617 L 35 410.54640358528036 L 36 410.78294386438125 L 37 411.01884254143687 L 38 411.25408238383415 L 39 411.48864620708844 L 40 411.72251687609884 L 41 411.9556773064001 L 42 412.18811046541055 L 43 412.41979937367626 L 44 412.6507271061116 L 45 412.88087679323553 L 46 413.1102316224037 L 47 413.3387748390372 L 48 413.566489747846 L 49 413.7933597140486 L 50 414.0193681645875 L 51 414.2444985893395 L 52 414.4687345423223 L 53 414.6920596428953 L 54 414.9144575769566 L 55 415.1359120981346 L 56 415.35640702897496 L 57 415.57592626212227 L 58 415.79445376149664 L 59 416.01197356346535 L 60 416.22846977800884 L 61 416.44392658988147 L 62 416.658328259767 L 63 416.8716591254284 L 64 417.0839036028515 L 65 417.2950461873841 L 66 417.5050714548682 L 67 417.71396406276676 L 68 417.9217087512846 L 69 418.12829034448316 L 70 418.33369375138886 L 71 418.537903967096 L 72 418.7409060738622 L 73 418.94268524219893 L 74 419.1432267319542 L 75 419.34251589338953 L 76 419.54053816825035 L 77 419.73727909082913 L 78 419.93272428902236 L 79 420.12685948538046 L 80 420.3196704981505 L 81 420.5111432423125 L 82 420.7012637306083 L 83 420.89001807456293 L 84 421.07739248549984 L 85 421.26337327554774 L 86 421.44794685864053 L 87 421.63109975151 L 88 421.8128185746706 L 89 421.99309005339677 L 90 422.17190101869295 L 91 422.3492384082553 L 92 422.5250892674261 L 93 422.69944075013996 L 94 422.87228011986235 L 95 423.0435947505199 L 96 423.213372127423 L 97 423.38159984817963 L 98 423.5482656236016 L 99 423.71335727860236 L 100 423.8768627530862 L 101 424.0387701028293 L 102 424.1990675003524 L 103 424.35774323578465 L 104 424.5147857177192 L 105 424.6701834740596 L 106 424.82392515285846 L 107 424.97599952314613 L 108 425.1263954757514 L 109 425.275102024113 L 110 425.42210830508213 L 111 425.56740357971626 L 112 425.7109772340632 L 113 425.85281877993685 L 114 425.9929178556831 L 115 426.131264226937 L 116 426.2678477873701 L 117 426.402658559429 L 118 426.53568669506404 L 119 426.6669224764489 L 120 426.79635631669015 L 121 426.923978760528 L 122 427.0497804850267 L 123 427.1737523002558 L 124 427.29588514996124 L 125 427.4161701122273 L 126 427.53459840012783 L 127 427.65116136236867 L 128 427.7658504839193 L 129 427.878657386635 L 130 427.98957382986873 L 131 428.0985917110734 L 132 428.2057030663936 L 133 428.31090007124726 L 134 428.41417504089736 L 135 428.51552043101333 L 136 428.6149288382223 L 137 428.71239300064946 L 138 428.8079057984491 L 139 428.9014602543244 L 140 428.99304953403714 L 141 429.08266694690707 L 142 429.1703059463006 L 143 429.25596013010903 L 144 429.33962324121626 L 145 429.4212891679558 L 146 429.50095194455747 L 147 429.57860575158287 L 148 429.65424491635065 L 149 429.727863913351 L 150 429.79945736464913 L 151 429.8690200402783 L 152 429.9365468586217 L 153 430.0020328867838 L 154 430.0654733409506 L 155 430.1268635867391 L 156 430.1861991395361 L 157 430.2434756648253 L 158 430.2986889785045 L 159 430.35183504719083 L 160 430.40290998851555 L 161 430.4519100714078 L 162 430.4988317163668 L 163 430.5436714957237 L 164 430.58642613389185 L 165 430.62709250760594 L 166 430.6656676461504 L 167 430.7021487315762 L 168 430.7365330989069 L 169 430.76881823633306 L 170 430.79900178539606 L 171 430.82708154116017 L 172 430.85305545237367 L 173 430.8769216216187 L 174 430.89867830544983 L 175 430.9183239145215 L 176 430.93585701370415 L 177 430.9512763221889 L 178 430.96458071358114 L 179 430.97576921598306 L 180 430.9848410120644 L 181 430.9917954391221 L 182 430.99663198912896 L 183 430.99935030877066 L 184 430.9999501994714 L 185 430.99843161740864 L 186 430.9947946735162 L 187 430.9890396334761 L 188 430.98116691769934 L 189 430.9711771012949 L 190 430.959070914028 L 191 430.94484924026665 L 192 430.928513118917 L 193 430.9100637433476 L 194 430.88950246130224 L 195 430.8668307748012 L 196 430.8420503400318 L 197 430.81516296722737 L 198 430.786170620535 L 199 430.7550754178721 L 200 430.72187963077135 L 201 430.6865856842153 L 202 430.6491961564589 L 203 430.6097137788412 L 204 430.5681414355858 L 205 430.5244821635902 L 206 430.478739152204 L 207 430.43091574299586 L 208 430.38101542950926 L 209 430.3290418570076 L 210 430.2749988222077 L 211 430.2188902730024 L 212 430.1607203081723 L 213 430.1004931770863 L 214 430.03821327939113 L 215 429.9738851646901 L 216 429.90751353221043 L 217 429.8391032304604 L 218 429.7686592568748 L 219 429.69618675745 L 220 429.6216910263681 L 221 429.54517750561007 L 222 429.4666517845583 L 223 429.3861195995881 L 224 429.3035868336489 L 225 429.21905951583454 L 226 429.1325438209424 L 227 429.0440460690228 L 228 428.9535727249171 L 229 428.8611303977854 L 230 428.76672584062396 L 231 428.6703659497715 L 232 428.5720577644058 L 233 428.4718084660294 L 234 428.36962537794477 L 235 428.26551596471944 L 236 428.15948783164094 L 237 428.0515487241608 L 238 427.9417065273292 L 239 427.82996926521855 L 240 427.71634510033755 L 241 427.60084233303496 L 242 427.48346940089306 L 243 427.3642348781114 L 244 427.2431474748804 L 245 427.12021603674515 L 246 426.99544954395907 L 247 426.86885711082806 L 248 426.74044798504457 L 249 426.61023154701223 L 250 426.47821730916036 L 251 426.34441491524916 L 252 426.2088341396653 L 253 426.07148488670805 L 254 425.9323771898652 L 255 425.7915212110807 L 256 425.6489272400121 L 257 425.5046056932787 L 258 425.3585671137009 L 259 425.2108221695299 L 260 425.06138165366843 L 261 424.9102564828822 L 262 424.75745769700245 L 263 424.60299645811966 L 264 424.44688404976796 L 265 424.2891318761009 L 266 424.1297514610584 L 267 423.96875444752476 L 268 423.80615259647857 L 269 423.64195778613293 L 270 423.47618201106826 L 271 423.3088373813559 L 272 423.1399361216734 L 273 422.96949057041144 L 274 422.79751317877276 L 275 422.6240165098625 L 276 422.44901323777015 L 277 422.2725161466441 L 278 422.0945381297575 L 279 421.9150921885666 L 280 421.7341914317607 L 281 421.55184907430476 L 282 421.36807843647404 L 283 421.182892942881 L 284 420.9963061214944 L 285 420.80833160265144 L 286 420.6189831180619 L 287 420.428274499805 L 288 420.2362196793189 L 289 420.042832686383 L 290 419.8481276480933 L 291 419.65211878783 L 292 419.45482042421884 L 293 419.25624697008493 L 294 419.05641293139985 L 295 418.85533290622203 L 296 418.6530215836304 L 297 418.44949374265127 L 298 418.2447642511787 L 299 418.0388480648884 L 300 417.83176022614526 L 301 417.62351586290447 L 302 417.4141301876063 L 303 417.20361849606496 L 304 416.9919961663512 L 305 416.77927865766884 L 306 416.56548150922555 L 307 416.3506203390977 L 308 416.1347108430893 L 309 415.91776879358565 L 310 415.6998100384009 L 311 415.4808504996207 L 312 415.2609061724385 L 313 415.0399931239878 L 314 414.8181274921679 L 315 414.59532548446504 L 316 414.3716033767688 L 317 414.1469775121829 L 318 413.92146429983114 L 319 413.6950802136591 L 320 413.4678417912302 L 321 413.23976563251824 L 322 413.01086839869424 L 323 412.7811668109094 L 324 412.5506776490739 L 325 412.3194177506309 L 326 412.08740400932646 L 327 411.85465337397557 L 328 411.6211828472241 L 329 411.3870094843066 L 330 411.1521503918003 L 331 410.91662272637586 L 332 410.68044369354357 L 333 410.4436305463969 L 334 410.2062005843517 L 335 409.9681711518829 L 336 409.72955963725735 L 337 409.4903834712633 L 338 409.25066012593754 L 339 409.0104071132885 L 340 408.76964198401765 L 341 408.52838232623685 L 342 408.2866457641837 L 343 408.0444499569341 L 344 407.8018125971123 L 345 407.55875140959836 L 346 407.31528415023325 L 347 407.071428604522 L 348 406.8272025863342 L 349 406.5826239366028 L 350 406.3377105220208 L 351 406.0924802337361 L 352 405.84695098604465 L 353 405.6011407150814 L 354 405.3550673775104 L 355 405.10874894921307 L 356 404.8622034239748 L 357 404.61544881217065 L 358 404.36850313944973 L 359 404.12138444541813 L 360 403.87411078232157 L 361 403.6267002137261 L 362 403.37917081319915 L 363 403.13154066298864 L 364 402.8838278527026 L 365 402.6360504779873 L 366 402.38822663920547 L 367 402.1403744401142 L 368 401.89251198654233 L 369 401.6446573850677 L 370 401.3968287416946 L 371 401.149044160531 L 372 400.9013217424662 L 373 400.6536795838484 L 374 400.40613577516257 L 375 400.1587083997095 L 376 399.9114155322841 L 377 399.6642752378555 L 378 399.4173055702472 L 379 399.1705245708183 L 380 398.9239502671454 L 381 398.677600671706 L 382 398.4314937805621 L 383 398.1856475720464 L 384 397.94008000544807 L 385 397.69480901970144 L 386 397.4498525320754 L 387 397.20522843686433 L 388 396.96095460408105 L 389 396.71704887815145 L 390 396.47352907661093 L 391 396.2304129888026 L 392 395.98771837457804 L 393 395.7454629629998 L 394 395.50366445104623 L 395 395.2623405023187 L 396 395.0215087457514 L 397 394.78118677432343 L 398 394.5413921437736 L 399 394.3021423713179 L 400 394.0634549343701 L 401 393.82534726926474 L 402 393.58783676998354 L 403 393.3509407868846 L 404 393.1146766254353 L 405 392.8790615449477 L 406 392.6441127573179 L 407 392.4098474257687 L 408 392.1762826635959 L 409 391.94343553291793 L 410 391.7113230434298 L 411 391.47996215116007 L 412 391.2493697572326 L 413 391.01956270663175 L 414 390.79055778697165 L 415 390.56237172727026 L 416 390.3350211967269 L 417 390.1085228035049 L 418 389.8828930935181 L 419 389.6581485492221 L 420 389.4343055884106 L 421 389.2113805630156 L 422 388.98938975791316 L 423 388.7683493897337 L 424 388.54827560567736 L 425 388.3291844823344 L 426 388.1110920245109 L 427 387.8940141640594 L 428 387.6779667587152 L 429 387.462965590938 L 430 387.2490263667588 L 431 387.0361647146328 L 432 386.82439618429737 L 433 386.61373624563646 L 434 386.4042002875504 L 435 386.19580361683165 L 436 385.9885614570468 L 437 385.7824889474242 L 438 385.5776011417484 L 439 385.37391300726006 L 440 385.1714394235628 L 441 384.9701951815363 L 442 384.7701949822557 L 443 384.57145343591753 L 444 384.3739850607728 L 445 384.17780428206595 L 446 383.9829254309816 L 447 383.7893627435971 L 448 383.5971303598431 L 449 383.40624232247023 L 450 383.2167125760233 L 451 383.028554965823 L 452 382.8417832369539 L 453 382.6564110332609 L 454 382.47245189635225 L 455 382.2899192646104 L 456 382.1088264722101 L 457 381.92918674814496 L 458 381.75101321526023 L 459 381.57431888929466 L 460 381.3991166779297 L 461 381.22541937984636 L 462 381.0532396837904 L 463 380.8825901676454 L 464 380.71348329751385 L 465 380.54593142680653 L 466 380.3799467953402 L 467 380.2155415284432 L 468 380.0527276360701 L 469 379.89151701192384 L 470 379.7319214325873 L 471 379.5739525566629 L 472 379.41762192392076 L 473 379.262940954456 L 474 379.1099209478542 L 475 378.95857308236623 L 476 378.8089084140914 L 477 378.66093787616995 L 478 378.5146722779844 L 479 378.37012230436994 L 480 378.22729851483365 L 481 378.0862113427834 L 482 377.9468710947655 L 483 377.8092879497121 L 484 377.673471958197 L 485 377.5394330417021 L 486 377.4071809918924 L 487 377.2767254699003 L 488 377.1480760056207 L 489 377.0212419970139 L 490 376.8962327094198 L 491 376.77305727488056 L 492 376.65172469147393 L 493 376.5322438226555 L 494 376.4146233966116 L 495 376.2988720056214 L 496 376.1849981054293 L 497 376.0730100146275 L 498 375.962915914048 L 499 375.8547238461649 L 500 375.74844171450746 L 501 375.644077283082 L 502 375.5416381758054 L 503 375.44113187594763 L 504 375.34256572558536 L 505 375.2459469250656 L 506 375.1512825324798 L 507 375.0585794631479 L 508 374.9678444891136 L 509 374.8790842386493 L 510 374.7923051957721 L 511 374.7075136997701 L 512 374.6247159447393 L 513 374.5439179791311 L 514 374.4651257053104 L 515 374.38834487912453 L 516 374.3135811094828 L 517 374.2408398579466 L 518 374.17012643833056 L 519 374.10144601631436 L 520 374.0348036090654 L 521 373.97020408487225 L 522 373.90765216278885 L 523 373.8471524122901 L 524 373.78870925293785 L 525 373.73232695405807 L 526 373.6780096344291 L 527 373.62576126198053 L 528 373.57558565350354 L 529 373.52748647437204 L 530 373.48146723827483 L 531 373.437531306959 L 532 373.3956818899843 L 533 373.3559220444888 L 534 373.3182546749654 L 535 373.2826825330497 L 536 373.24920821731905 L 537 373.21783417310274 L 538 373.1885626923032 L 539 373.16139591322883 L 540 373.1363358204375 L 541 373.1133842445919 L 542 373.0925428623254 L 543 373.07381319612006 L 544 373.057196614195 L 545 373.0426943304067 L 546 373.03030740416006 L 547 373.0200367403315 L 548 373.0118830892023 L 549 373.005847046404 L 550 373.00192905287514 L 551 373.0001293948287 L 552 373.0004482037313 L 553 373.00288545629365 L 554 373.0074409744723 L 555 373.01411442548243 L 556 373.0229053218224 L 557 373.03381302130924 L 558 373.04683672712554 L 559 373.0619754878777 L 560 373.0792281976656 L 561 373.0985935961629 L 562 373.1200702687098 L 563 373.1436566464157 L 564 373.1693510062742 L 565 373.19715147128903 L 566 373.2270560106109 L 567 373.25906243968586 L 568 373.29316842041527 L 569 373.32937146132616 L 570 373.36766891775335 L 571 373.40805799203287 L 572 373.45053573370603 L 573 373.4950990397352 L 574 373.54174465473017 L 575 373.5904691711864 L 576 373.64126902973356 L 577 373.6941405193958 L 578 373.74907977786256 L 579 373.80608279177113 L 580 373.8651453969993 L 581 373.9262632789701 L 582 373.98943197296654 L 583 374.0546468644581 L 584 374.1219031894375 L 585 374.191196034769 L 586 374.2625203385471 L 587 374.33587089046665 L 588 374.4112423322029 L 589 374.4886291578035 L 590 374.56802571409025 L 591 374.64942620107263 L 592 374.7328246723708 L 593 374.81821503565055 L 594 374.9055910530682 L 595 374.99494634172595 L 596 375.0862743741387 L 597 375.1795684787106 L 598 375.2748218402224 L 599 375.3720275003291 L 600 375.47117835806904 L 601 375.57226717038156 L 602 375.6752865526369 L 603 375.7802289791756 L 604 375.8870867838576 L 605 375.9958521606232 L 606 376.1065171640625 L 607 376.2190737099963 L 608 376.33351357606637 L 609 376.4498284023364 L 610 376.5680096919024 L 611 376.6880488115135 L 612 376.80993699220284 L 613 376.9336653299278 L 614 377.05922478622074 L 615 377.18660618884894 L 616 377.3158002324851 L 617 377.44679747938665 L 618 377.57958836008544 L 619 377.71416317408676 L 620 377.8505120905779 L 621 377.98862514914646 L 622 378.12849226050764 L 623 378.2701032072418 L 624 378.41344764454016 L 625 378.55851510096124 L 626 378.7052949791952 L 627 378.8537765568383 L 628 379.00394898717616 L 629 379.155801299976 L 630 379.3093224022881 L 631 379.46450107925625 L 632 379.62132599493674 L 633 379.77978569312677 L 634 379.93986859820103 L 635 380.1015630159577 L 636 380.26485713447227 L 637 380.4297390249607 L 638 380.59619664265085 L 639 380.7642178276622 L 640 380.9337903058942 L 641 381.1049016899229 L 642 381.27753947990595 L 643 381.45169106449566 L 644 381.62734372176016 L 645 381.804484620113 L 646 381.9831008192502 L 647 382.1631792710959 L 648 382.3447068207551 L 649 382.5276702074752 L 650 382.71205606561415 L 651 382.89785092561715 L 652 383.08504121500056 L 653 383.2736132593433 L 654 383.4635532832859 L 655 383.65484741153654 L 656 383.8474816698852 L 657 384.04144198622384 L 658 384.2367141915747 L 659 384.4332840211256 L 660 384.6311371152713 L 661 384.83025902066333 L 662 385.0306351912651 L 663 385.23225098941504 L 664 385.4350916868955 L 665 385.63914246600876 L 666 385.84438842065975 L 667 386.05081455744465 L 668 386.25840579674616 L 669 386.46714697383527 L 670 386.67702283997903 L 671 386.8880180635542 L 672 387.1001172311678 L 673 387.3133048487824 L 674 387.52756534284856 L 675 387.74288306144206 L 676 387.95924227540746 L 677 388.1766271795073 L 678 388.3950218935764 L 679 388.61441046368213 L 680 388.8347768632897 L 681 389.05610499443287 L 682 389.2783786888903 L 683 389.50158170936623 L 684 389.7256977506768 L 685 389.9507104409411 L 686 390.17660334277736 L 687 390.40335995450334 L 688 390.63096371134225 L 689 390.8593979866323 L 690 391.0886460930418 L 691 391.3186912837878 L 692 391.5495167538598 L 693 391.78110564124694 L 694 392.0134410281703 L 695 392.2465059423182 L 696 392.4802833580866 L 697 392.71475619782234 L 698 392.9499073330711 L 699 393.18571958582834 L 700 393.42217572979433 L 701 393.65925849163244 L 702 393.89695055223115 L 703 394.135234547969 L 704 394.3740930719831 L 705 394.6135086754409 L 706 394.85346386881463 L 707 395.0939411231589 L 708 395.33492287139137 L 709 395.57639150957596 L 710 395.8183293982088 L 711 396.0607188635068 L 712 396.30354219869895 L 713 396.54678166531954 L 714 396.790419494504 L 715 397.03443788828724 L 716 397.2788190209033 L 717 397.5235450400881 L 718 397.768598068383 L 719 398.0139602044413 L 720 398.25961352433546 L 721 398.50554008286696 L 722 398.7517219148767 L 723 398.99814103655785 L 724 399.24477944676914 L 725 399.4916191283501 L 726 399.7386420494375 L 727 399.9858301647818 L 728 400.2331654170663 L 729 400.48062973822556 L 730 400.7282050507657 L 731 400.97587326908473 L 732 401.22361630079376 L 733 401.4714160480389 L 734 401.7192544088229 L 735 401.967113278328 L 736 402.21497455023797 L 737 402.46282011806136 L 738 402.7106318764538 L 739 402.9583917225407 L 740 403.2060815572397 L 741 403.453683286583 L 742 403.7011788230388 L 743 403.94855008683277 L 744 404.195779007269 L 745 404.4428475240497 L 746 404.6897375885948 L 747 404.9364311653604 L 748 405.18291023315595 L 749 405.4291567864613 L 750 405.6751528367415 L 751 405.92088041376115 L 752 406.16632156689707 L 753 406.41145836644944 L 754 406.656272904952 L 755 406.90074729847987 L 756 407.1448636879559 L 757 407.38860424045566 L 758 407.6319511505099 L 759 407.87488664140534 L 760 408.1173929664831 L 761 408.35945241043544 L 762 408.6010472905996 L 763 408.84215995824957 L 764 409.08277279988556 L 765 409.32286823852036 L 766 409.56242873496365 L 767 409.8014367891031 L 768 410.03987494118263 L 769 410.27772577307826 L 770 410.5149719095702 L 771 410.7515960196121 L 772 410.98758081759746 L 773 411.2229090646218 L 774 411.4575635697424 L 775 411.6915271912342 L 776 411.9247828378415 L 777 412.157313470027 L 778 412.3891021012164 L 779 412.62013179903914 L 780 412.8503856865654 L 781 413.0798469435391 L 782 413.30849880760655 L 783 413.5363245755409 L 784 413.7633076044624 L 785 413.9894313130541 L 786 414.2146791827733 L 787 414.43903475905796 L 788 414.6624816525291 L 789 414.8850035401876 L 790 415.10658416660704 L 791 415.327207345121 L 792 415.5468569590053 L 793 415.7655169626558 L 794 415.9831713827601 L 795 416.19980431946465 L 796 416.4153999475363 L 797 416.629942517518 L 798 416.84341635687974 L 799 417.0558058711633 L 800 417.2670955451212 L 801 417.47726994385044 L 802 417.68631371391984 L 803 417.89421158449176 L 804 418.10094836843734 L 805 418.3065089634464 L 806 418.5108783531303 L 807 418.7140416081191 L 808 418.91598388715204 L 809 419.11669043816175 L 810 419.31614659935207 L 811 419.5143378002687 L 812 419.71124956286405 L 813 419.90686750255463 L 814 420.1011773292718 L 815 420.29416484850583 L 816 420.48581596234277 L 817 420.6761166704943 L 818 420.86505307132035 L 819 421.05261136284486 L 820 421.23877784376396 L 821 421.4235389144467 L 822 421.60688107792856 L 823 421.7887909408977 L 824 421.969255214673 L 825 422.14826071617495 L 826 422.32579436888864 L 827 422.50184320381925 L 828 422.676394360439 L 829 422.84943508762706 L 830 423.02095274460066 L 831 423.190934801839 L 832 423.3593688419979 L 833 423.52624256081737 L 834 423.69154376802044 L 835 423.85526038820336 L 836 424.01738046171795 L 837 424.17789214554534 L 838 424.33678371416084 L 839 424.4940435603907 L 840 424.64966019626 L 841 424.80362225383186 L 842 424.9559184860377 L 843 425.1065377674992 L 844 425.25546909534074 L 845 425.40270158999317 L 846 425.54822449598873 L 847 425.6920271827467 L 848 425.8340991453498 L 849 425.9744300053119 L 850 426.1130095113359 L 851 426.24982754006277 L 852 426.38487409681085 L 853 426.5181393163063 L 854 426.6496134634035 L 855 426.7792869337963 L 856 426.9071502547197 L 857 427.0331940856415 L 858 427.15740921894536 L 859 427.27978658060255 L 860 427.4003172308354 L 861 427.51899236477027 L 862 427.6358033130805 L 863 427.75074154262 L 864 427.8637986570464 L 865 427.9749663974347 L 866 428.0842366428801 L 867 428.1916014110918 L 868 428.29705285897575 L 869 428.4005832832076 L 870 428.5021851207956 L 871 428.6018509496331 L 872 428.6995734890406 L 873 428.7953456002974 L 874 428.88916028716386 L 875 428.98101069639154 L 876 429.0708901182245 L 877 429.15879198688907 L 878 429.2447098810738 L 879 429.3286375243982 L 880 429.4105687858716 L 881 429.49049768034075 L 882 429.56841836892715 L 883 429.6443251594535 L 884 429.7182125068597 L 885 429.79007501360775 L 886 429.8599074300761 L 887 429.9277046549431 L 888 429.9934617355599 L 889 430.05717386831174 L 890 430.1188363989694 L 891 430.1784448230288 L 892 430.23599478604046 L 893 430.291482083927 L 894 430.3449026632909 L 895 430.39625262171023 L 896 430.44552820802363 L 897 430.4927258226048 L 898 430.537842017625 L 899 430.5808734973051 L 900 430.6218171181563 L 901 430.6606698892099 L 902 430.69742897223546 L 903 430.73209168194865 L 904 430.7646554862069 L 905 430.7951180061947 L 906 430.82347701659717 L 907 430.8497304457628 L 908 430.87387637585476 L 909 430.8959130429908 L 910 430.91583883737235 L 911 430.933652303402 L 912 430.9493521397898 L 913 430.9629371996484 L 914 430.97440649057694 L 915 430.9837591747331 L 916 430.9909945688949 L 917 430.99611214451016 L 918 430.99911152773535 L 919 430.99999249946273 L 920 430.99875499533664 L 921 430.99539910575777 L 922 430.98992507587695 L 923 430.9823333055771 L 924 430.9726243494438 L 925 430.96079891672525 L 926 430.9468578712801 L 927 430.93080223151435 L 928 430.9126331703071 L 929 430.8923520149249 L 930 430.8699602469245 L 931 430.84545950204495 L 932 430.81885157008804 L 933 430.7901383947874 L 934 430.7593220736666 L 935 430.72640485788594 L 936 430.69138915207805 L 937 430.6542775141721 L 938 430.61507265520703 L 939 430.57377743913344 L 940 430.5303948826045 L 941 430.48492815475544 L 942 430.43738057697215 L 943 430.38775562264846 L 944 430.3360569169324 L 945 430.28228823646157 L 946 430.22645350908704 L 947 430.1685568135864 L 948 430.108602379366 L 949 430.04659458615185 L 950 429.9825379636697 L 951 429.9164371913141 L 952 429.8482970978068 L 953 429.7781226608434 L 954 429.7059190067306 L 955 429.63169141001106 L 956 429.5554452930782 L 957 429.4771862257804 L 958 429.39691992501366 L 959 429.31465225430435 L 960 429.23038922338077 L 961 429.144136987734 L 962 429.05590184816833 L 963 428.9656902503411 L 964 428.8735087842917 L 965 428.77936418396 L 966 428.6832633266949 L 967 428.58521323275147 L 968 428.48522106477833 L 969 428.3832941272944 L 970 428.2794398661552 L 971 428.17366586800915 L 972 428.06597985974304 L 973 427.9563897079178 L 974 427.8449034181939 L 975 427.73152913474615 L 976 427.61627513966926 L 977 427.49914985237245 L 978 427.3801618289647 L 979 427.2593197616293 L 980 427.13663247798934 L 981 427.0121089404626 L 982 426.88575824560684 L 983 426.7575896234554 L 984 426.62761243684275 L 985 426.4958361807207 L 986 426.3622704814648 L 987 426.2269250961709 L 988 426.08980991194267 L 989 425.9509349451691 L 990 425.81031034079297 L 991 425.66794637156966 L 992 425.5238534373167 L 993 425.3780420641541 L 994 425.2305229037355 L 995 425.08130673246984 L 996 424.9304044507343 L 997 424.7778270820778 L 998 424.62358577241616 L 999 424.46769178921744 L 1000 424.310156520679 L 1001 424.15099147489576 L 1002 423.99020827901904 L 1003 423.82781867840777 L 1004 423.6638345357701 L 1005 423.4982678302969 L 1006 423.33113065678685 L 1007 423.16243522476253 L 1008 422.99219385757885 L 1009 422.8204189915227 L 1010 422.6471231749044 L 1011 422.4723190671411 L 1012 422.29601943783206 L 1013 422.1182371658257 L 1014 421.9389852382788 L 1015 421.7582767497079 L 1016 421.5761249010326 L 1017 421.3925429986112 L 1018 421.20754445326895 L 1019 421.02114277931787 L 1020 420.83335159357006 L 1021 420.6441846143425 L 1022 420.4536556604553 L 1023 420.26177865022197 L 1024 420.0685676004328 L 1025 419.87403662533086 L 1026 419.67819993558106 L 1027 419.4810718372318 L 1028 419.28266673067014 L 1029 419.0829991095697 L 1030 418.88208355983204 L 1031 418.67993475852103 L 1032 418.4765674727905 L 1033 418.27199655880594 L 1034 418.0662369606588 L 1035 417.859303709275 L 1036 417.6512119213171 L 1037 417.44197679807945 L 1038 417.2316136243785 L 1039 417.0201377674354 L 1040 416.8075646757542 L 1041 416.5939098779927 L 1042 416.37918898182835 L 1043 416.1634176728181 L 1044 415.9466117132526 L 1045 415.7287869410045 L 1046 415.50995926837174 L 1047 415.29014468091503 L 1048 415.06935923629004 L 1049 414.8476190630746 L 1050 414.6249403595902 L 1051 414.4013393927188 L 1052 414.17683249671467 L 1053 413.95143607201095 L 1054 413.7251665840216 L 1055 413.49804056193875 L 1056 413.2700745975251 L 1057 413.0412853439019 L 1058 412.81168951433233 L 1059 412.5813038810009 L 1060 412.35014527378775 L 1061 412.1182305790396 L 1062 411.8855767383361 L 1063 411.6522007472521 L 1064 411.41811965411614 L 1065 411.18335055876526 L 1066 410.9479106112956 L 1067 410.7118170108096 L 1068 410.47508700415983 L 1069 410.2377378846887 L 1070 409.9997869909655 L 1071 409.7612517055196 L 1072 409.5221494535709 L 1073 409.28249770175637 L 1074 409.04231395685485 L 1075 408.80161576450746 L 1076 408.5604207079363 L 1077 408.3187464066599 L 1078 408.0766105152059 L 1079 407.83403072182165 L 1080 407.5910247471819 L 1081 407.34761034309435 L 1082 407.1038052912028 L 1083 406.8596274016881 L 1084 406.61509451196764 L 1085 406.37022448539153 L 1086 406.1250352099381 L 1087 405.87954459690724 L 1088 405.6337705796116 L 1089 405.38773111206694 L 1090 405.14144416768045 L 1091 404.89492773793745 L 1092 404.6481998310877 L 1093 404.4012784708294 L 1094 404.1541816949927 L 1095 403.906927554222 L 1096 403.65953411065743 L 1097 403.41201943661525 L 1098 403.16440161326767 L 1099 402.91669872932226 L 1100 402.66892887970005 L 1101 402.4211101642142 L 1102 402.1732606862475 L 1103 401.9253985514299 L 1104 401.67754186631606 L 1105 401.4297087370624 L 1106 401.18191726810477 L 1107 400.93418556083543 L 1108 400.68653171228124 L 1109 400.43897381378116 L 1110 400.1915299496652 L 1111 399.9442181959328 L 1112 399.6970566189328 L 1113 399.4500632740433 L 1114 399.2032562043532 L 1115 398.9566534393434 L 1116 398.7102729935706 L 1117 398.4641328653505 L 1118 398.21825103544364 L 1119 397.97264546574155 L 1120 397.72733409795467 L 1121 397.48233485230173 L 1122 397.2376656262007 L 1123 396.9933442929613 L 1124 396.7493887004793 L 1125 396.50581666993287 L 1126 396.2626459944806 L 1127 396.0198944379617 L 1128 395.7775797335983 L 1129 395.53571958270027 L 1130 395.2943316533718 L 1131 395.05343357922084 L 1132 394.81304295807104 L 1133 394.57317735067613 L 1134 394.3338542794371 L 1135 394.09509122712217 L 1136 393.85690563558967 L 1137 393.61931490451394 L 1138 393.3823363901142 L 1139 393.14598740388664 L 1140 392.91028521133984 L 1141 392.67524703073354 L 1142 392.4408900318209 L 1143 392.20723133459404 L 1144 391.9742880080335 L 1145 391.7420770688613 L 1146 391.510615480298 L 1147 391.27992015082333 L 1148 391.0500079329411 L 1149 390.8208956219483 L 1150 390.5925999547077 L 1151 390.3651376084256 L 1152 390.13852519943356 L 1153 389.91277928197434 L 1154 389.68791634699267 L 1155 389.4639528209308 L 1156 389.240905064528 L 1157 389.01878937162616 L 1158 388.7976219679787 L 1159 388.5774190100659 L 1160 388.35819658391426 L 1161 388.1399707039216 L 1162 387.9227573116872 L 1163 387.7065722748469 L 1164 387.49143138591467 L 1165 387.2773503611282 L 1166 387.0643448393013 L 1167 386.85243038068126 L 1168 386.64162246581213 L 1169 386.4319364944041 L 1170 386.2233877842083 L 1171 386.0159915698977 L 1172 385.8097630019548 L 1173 385.60471714556405 L 1174 385.40086897951204 L 1175 385.19823339509287 L 1176 384.9968251950204 L 1177 384.79665909234706 L 1178 384.59774970938884 L 1179 384.4001115766573 L 1180 384.20375913179794 L 1181 384.0087067185356 L 1182 383.81496858562673 L 1183 383.6225588858182 L 1184 383.43149167481374 L 1185 383.2417809102472 L 1186 383.0534404506625 L 1187 382.86648405450177 L 1188 382.68092537909996 L 1189 382.4967779796871 L 1190 382.31405530839857 L 1191 382.13277071329173 L 1192 381.9529374373713 L 1193 381.7745686176218 L 1194 381.59767728404796 L 1195 381.4222763587227 L 1196 381.2483786548433 L 1197 381.07599687579534 L 1198 380.9051436142247 L 1199 380.73583135111767 L 1200 380.56807245488926 L 1201 380.40187918047957 L 1202 380.2372636684586 L 1203 380.07423794413927 L 1204 379.9128139166993 L 1205 379.7530033783108 L 1206 379.594818003279 L 1207 379.4382693471897 L 1208 379.2833688460646 L 1209 379.1301278155265 L 1210 378.9785574499721 L 1211 378.82866882175455 L 1212 378.6804728803746 L 1213 378.5339804516808 L 1214 378.38920223707834 L 1215 378.2461488127476 L 1216 378.1048306288715 L 1217 377.96525800887207 L 1218 377.82744114865613 L 1219 377.6913901158709 L 1220 377.55711484916816 L 1221 377.4246251574784 L 1222 377.2939307192941 L 1223 377.1650410819631 L 1224 377.0379656609907 L 1225 376.9127137393521 L 1226 376.78929446681417 L 1227 376.66771685926716 L 1228 376.54798979806594 L 1229 376.4301220293814 L 1230 376.31412216356125 L 1231 376.19999867450144 L 1232 376.0877598990266 L 1233 375.9774140362815 L 1234 375.86896914713196 L 1235 375.7624331535758 L 1236 375.65781383816426 L 1237 375.55511884343366 L 1238 375.4543556713469 L 1239 375.3555316827453 L 1240 375.2586540968113 L 1241 375.1637299905408 L 1242 375.070766298226 L 1243 374.9797698109494 L 1244 374.89074717608725 L 1245 374.80370489682394 L 1246 374.71864933167734 L 1247 374.6355866940339 L 1248 374.55452305169484 L 1249 374.47546432643315 L 1250 374.3984162935606 L 1251 374.32338458150616 L 1252 374.2503746714047 L 1253 374.1793918966966 L 1254 374.1104414427382 L 1255 374.043528346423 L 1256 373.9786574958135 L 1257 373.9158336297844 L 1258 373.8550613376763 L 1259 373.7963450589606 L 1260 373.73968908291477 L 1261 373.6850975483095 L 1262 373.6325744431061 L 1263 373.58212360416513 L 1264 373.53374871696644 L 1265 373.4874533153395 L 1266 373.4432407812056 L 1267 373.40111434433055 L 1268 373.3610770820889 L 1269 373.3231319192392 L 1270 373.28728162771006 L 1271 373.25352882639794 L 1272 373.2218759809757 L 1273 373.1923254037126 L 1274 373.164879253305 L 1275 373.1395395347194 L 1276 373.11630809904517 L 1277 373.0951866433599 L 1278 373.0761767106052 L 1279 373.0592796894738 L 1280 373.0444968143086 L 1281 373.03182916501214 L 1282 373.0212776669676 L 1283 373.0128430909716 L 1284 373.0065260531776 L 1285 373.0023270150509 L 1286 373.0002462833351 L 1287 373.0002840100296 L 1288 373.00244019237834 L 1289 373.00671467287026 L 1290 373.0131071392507 L 1291 373.0216171245441 L 1292 373.03224400708837 L 1293 373.04498701058003 L 1294 373.0598452041311 L 1295 373.07681750233695 L 1296 373.0959026653558 L 1297 373.1170992989991 L 1298 373.1404058548335 L 1299 373.1658206302938 L 1300 373.1933417688076 L 1301 373.2229672599306 L 1302 373.25469493949373 L 1303 373.2885224897612 L 1304 373.3244474395995 L 1305 373.3624671646585 L 1306 373.4025788875625 L 1307 373.4447796781138 L 1308 373.48906645350615 L 1309 373.53543597855025 L 1310 373.58388486591014 L 1311 373.6344095763505 L 1312 373.68700641899517 L 1313 373.741671551597 L 1314 373.7984009808182 L 1315 373.85719056252236 L 1316 373.91803600207703 L 1317 373.98093285466746 L 1318 374.0458765256212 L 1319 374.11286227074413 L 1320 374.1818851966664 L 1321 374.25294026120065 L 1322 374.32602227370955 L 1323 374.4011258954857 L 1324 374.478245640141 L 1325 374.5573758740079 L 1326 374.63851081655093 L 1327 374.7216445407886 L 1328 374.8067709737266 L 1329 374.8938838968016 L 1330 374.98297694633516 L 1331 375.074043613999 L 1332 375.1670772472901 L 1333 375.26207105001686 L 1334 375.3590180827955 L 1335 375.45791126355704 L 1336 375.55874336806454 L 1337 375.661507030441 L 1338 375.76619474370733 L 1339 375.87279886033076 L 1340 375.9813115927835 L 1341 376.0917250141117 L 1342 376.20403105851443 L 1343 376.31822152193286 L 1344 376.43428806264967 L 1345 376.5522222018984 L 1346 376.67201532448286 L 1347 376.7936586794063 L 1348 376.91714338051094 L 1349 377.04246040712695 L 1350 377.1696006047315 L 1351 377.2985546856173 L 1352 377.4293132295714 L 1353 377.56186668456314 L 1354 377.69620536744196 L 1355 377.8323194646447 L 1356 377.9701990329127 L 1357 378.109834000018 L 1358 378.25121416549905 L 1359 378.3943292014061 L 1360 378.5391686530555 L 1361 378.68572193979344 L 1362 378.83397835576886 L 1363 378.98392707071565 L 1364 379.1355571307436 L 1365 379.2888574591389 L 1366 379.44381685717286 L 1367 379.6004240049205 L 1368 379.75866746208703 L 1369 379.9185356688439 L 1370 380.08001694667297 L 1371 380.24309949921997 L 1372 380.4077714131559 L 1373 380.57402065904756 L 1374 380.7418350922362 L 1375 380.91120245372474 L 1376 381.08211037107316 L 1377 381.2545463593025 L 1378 381.42849782180684 L 1379 381.60395205127355 L 1380 381.78089623061135 L 1381 381.95931743388684 L 1382 382.1392026272688 L 1383 382.32053866997995 L 1384 382.5033123152574 L 1385 382.6875102113199 L 1386 382.87311890234344 L 1387 383.0601248294442 L 1388 383.24851433166896 L 1389 383.438273646993 L 1390 383.62938891332567 L 1391 383.82184616952276 L 1392 384.01563135640646 L 1393 384.21073031779247 L 1394 384.40712880152404 L 1395 384.60481246051313 L 1396 384.80376685378843 L 1397 385.0039774475505 L 1398 385.20542961623306 L 1399 385.4081086435719 L 1400 385.61199972367945 L 1401 385.8170879621268 L 1402 386.02335837703134 L 1403 386.2307959001515 L 1404 386.4393853779874 L 1405 386.6491115728877 L 1406 386.859959164163 L 1407 387.0719127492048 L 1408 387.2849568446107 L 1409 387.4990758873156 L 1410 387.7142542357285 L 1411 387.9304761708752 L 1412 388.1477258975464 L 1413 388.3659875454519 L 1414 388.5852451703795 L 1415 388.8054827553601 L 1416 389.02668421183773 L 1417 389.2488333808445 L 1418 389.47191403418134 L 1419 389.69590987560355 L 1420 389.92080454201096 L 1421 390.14658160464336 L 1422 390.37322457028085 L 1423 390.60071688244847 L 1424 390.82904192262566 L 1425 391.0581830114604 L 1426 391.2881234099875 L 1427 391.5188463208516 L 1428 391.7503348895339 L 1429 391.98257220558384 L 1430 392.2155413038539 L 1431 392.4492251657395 L 1432 392.6836067204217 L 1433 392.91866884611454 L 1434 393.1543943713159 L 1435 393.3907660760613 L 1436 393.6277666931827 L 1437 393.8653789095692 L 1438 394.10358536743206 L 1439 394.34236866557274 L 1440 394.5817113606538 L 1441 394.8215959684736 L 1442 395.06200496524303 L 1443 395.3029207888661 L 1444 395.54432584022254 L 1445 395.78620248445355 L 1446 396.0285330522501 L 1447 396.2712998411436 L 1448 396.51448511679905 L 1449 396.7580711143107 L 1450 397.0020400394997 L 1451 397.2463740702139 L 1452 397.49105535763 L 1453 397.7360660275571 L 1454 397.9813881817428 L 1455 398.2270038991803 L 1456 398.4728952374179 L 1457 398.7190442338695 L 1458 398.96543290712674 L 1459 399.2120432582728 L 1460 399.45885727219695 L 1461 399.70585691891085 L 1462 399.9530241548654 L 1463 400.20034092426897 L 1464 400.44778916040644 L 1465 400.69535078695884 L 1466 400.94300771932404 L 1467 401.1907418659376 L 1468 401.4385351295946 L 1469 401.6863694087715 L 1470 401.93422659894867 L 1471 402.18208859393263 L 1472 402.4299372871791 L 1473 402.67775457311524 L 1474 402.92552234846283 L 1475 403.1732225135603 L 1476 403.420836973685 L 1477 403.6683476403753 L 1478 403.9157364327516 L 1479 404.1629852788374 L 1480 404.4100761168794 L 1481 404.65699089666697 L 1482 404.9037115808506 L 1483 405.15022014625976 L 1484 405.39649858521926 L 1485 405.6425289068649 L 1486 405.88829313845787 L 1487 406.1337733266971 L 1488 406.3789515390315 L 1489 406.62380986496936 L 1490 406.8683304173871 L 1491 407.11249533383574 L 1492 407.3562867778459 L 1493 407.5996869402306 L 1494 407.8426780403863 L 1495 408.0852423275921 L 1496 408.32736208230585 L 1497 408.56901961745905 L 1498 408.8101972797488 L 1499 409.0508774509273 L 1500 409.29104254908896 L 1501 409.53067502995464 L 1502 409.76975738815355 L 1503 410.00827215850165 L 1504 410.24620191727786 L 1505 410.48352928349675 L 1506 410.7202369201781 L 1507 410.9563075356136 L 1508 411.19172388462977 L 1509 411.4264687698481 L 1510 411.660525042941 L 1511 411.8938756058846 L 1512 412.12650341220785 L 1513 412.3583914682377 L 1514 412.5895228343406 L 1515 412.8198806261598 L 1516 413.04944801584884 L 1517 413.278208233301 L 1518 413.50614456737406 L 1519 413.73324036711136 L 1520 413.9594790429579 L 1521 414.18484406797256 L 1522 414.40931897903505 L 1523 414.6328873780487 L 1524 414.8555329331384 L 1525 415.07723937984383 L 1526 415.29799052230703 L 1527 415.5177702344562 L 1528 415.73656246118315 L 1529 415.9543512195167 L 1530 416.1711205997896 L 1531 416.38685476680143 L 1532 416.6015379609748 L 1533 416.81515449950695 L 1534 417.0276887775152 L 1535 417.2391252691772 L 1536 417.44944852886465 L 1537 417.65864319227194 L 1538 417.86669397753843 L 1539 418.073585686365" stroke-linecap="round" stroke-linejoin="round" stroke-miterlimit="10" stroke-width="8"/></g></svg>